<svg width="344" height="140" viewBox="0 0 344 140" fill="none" xmlns="http://www.w3.org/2000/svg">
<path d="M44.39 95.8641L42.59 112.164H0V110.904H1.59C2.98 110.904 4.1 110.654 4.95 110.174C5.57 109.864 6.04 109.314 6.37 108.524C6.62 107.984 6.76 106.544 6.76 104.214V73.6741C6.76 71.3041 6.63 69.8241 6.37 69.2241C6.1 68.6241 5.58 68.1141 4.79 67.6641C4.01 67.2241 2.93 67.0041 1.59 67.0041H0V65.7341H25.58V67.0041H23.49C22.09 67.0041 20.98 67.2341 20.12 67.7141C19.52 68.0441 19.03 68.5741 18.67 69.3641C18.42 69.9141 18.28 71.3441 18.28 73.6741V103.254C18.28 105.624 18.42 107.144 18.7 107.794C18.99 108.444 19.53 108.934 20.36 109.254C20.95 109.464 22.38 109.554 24.63 109.554H28.63C31.18 109.554 33.3 109.124 35.01 108.254C36.7 107.394 38.17 106.024 39.4 104.144C40.64 102.274 41.81 99.5141 42.93 95.8541H44.38L44.39 95.8641Z" fill="white"/>
<path d="M65.8599 107.454C61.8299 110.904 58.2099 112.624 54.9899 112.624C53.1099 112.624 51.5399 112.034 50.2899 110.824C49.0299 109.634 48.4199 108.124 48.4199 106.324C48.4199 103.884 49.4899 101.684 51.6699 99.7341C53.8399 97.7841 58.5599 95.1841 65.8599 91.9541V88.7241C65.8599 86.3041 65.7299 84.7841 65.4499 84.1541C65.1799 83.5241 64.6599 82.9741 63.9199 82.5041C63.1599 82.0341 62.3099 81.8041 61.3699 81.8041C59.8399 81.8041 58.5699 82.1441 57.5799 82.7941C56.9799 83.2041 56.6599 83.6841 56.6599 84.2341C56.6599 84.7141 56.9999 85.3141 57.6499 86.0241C58.5399 87.0041 58.9999 87.9541 58.9999 88.8641C58.9999 89.9841 58.5699 90.9341 57.7099 91.7241C56.8399 92.5041 55.7199 92.9041 54.3299 92.9041C52.8499 92.9041 51.5999 92.4641 50.5999 91.5941C49.5999 90.7241 49.0899 89.7141 49.0899 88.5541C49.0899 86.9041 49.7699 85.3441 51.1099 83.8441C52.4599 82.3441 54.3299 81.1941 56.7399 80.3941C59.1399 79.6041 61.6399 79.2041 64.2399 79.2041C67.3799 79.2041 69.8499 79.8441 71.6899 81.1341C73.5099 82.4341 74.6999 83.8241 75.2399 85.3341C75.5799 86.2941 75.7399 88.5041 75.7399 91.9441V104.364C75.7399 105.824 75.7999 106.744 75.9199 107.124C76.0399 107.494 76.2099 107.774 76.4499 107.964C76.6799 108.144 76.9599 108.234 77.2599 108.234C77.8799 108.234 78.4999 107.814 79.1499 106.974L80.1999 107.794C79.0299 109.484 77.8099 110.714 76.5399 111.474C75.2899 112.234 73.8499 112.614 72.2399 112.614C70.3599 112.614 68.8799 112.184 67.8199 111.334C66.7599 110.484 66.1099 109.184 65.8799 107.454H65.8599ZM65.8599 104.954V94.2441C63.0099 95.8641 60.8899 97.5941 59.4999 99.4441C58.5699 100.684 58.1099 101.924 58.1099 103.174C58.1099 104.224 58.4999 105.154 59.2799 105.954C59.8699 106.574 60.6899 106.874 61.7599 106.874C62.9399 106.874 64.3099 106.234 65.8599 104.954Z" fill="white"/>
<path d="M95.5198 80.1641V84.3041C97.2198 82.5241 98.8498 81.2341 100.41 80.4241C101.97 79.6041 103.63 79.2041 105.43 79.2041C107.57 79.2041 109.36 79.7741 110.77 80.9341C112.18 82.0741 113.12 83.5141 113.6 85.2241C113.99 86.5341 114.17 89.0341 114.17 92.7241V105.184C114.17 107.654 114.4 109.194 114.86 109.784C115.32 110.394 116.28 110.774 117.74 110.944V112.174H101.01V110.944C102.26 110.784 103.16 110.274 103.7 109.434C104.07 108.864 104.27 107.444 104.27 105.184V90.9541C104.27 88.3241 104.16 86.6641 103.96 85.9841C103.74 85.2941 103.38 84.7741 102.87 84.3941C102.36 84.0041 101.81 83.8241 101.19 83.8241C99.1598 83.8241 97.2798 85.2241 95.5298 88.0441V105.184C95.5298 107.584 95.7598 109.094 96.2198 109.744C96.6898 110.384 97.5398 110.784 98.7898 110.944V112.174H82.0598V110.944C83.4498 110.804 84.4398 110.374 85.0298 109.634C85.4298 109.134 85.6298 107.644 85.6298 105.184V87.1041C85.6298 84.6841 85.3998 83.1941 84.9398 82.5941C84.4798 81.9941 83.5198 81.6141 82.0498 81.4241V80.1641H95.5198Z" fill="white"/>
<path d="M152.64 65.7441V102.594C152.64 105.084 152.71 106.554 152.85 107.014C153.03 107.764 153.39 108.324 153.93 108.684C154.46 109.044 155.39 109.284 156.71 109.374V110.494L142.74 113.134V108.064C141.06 110.024 139.58 111.374 138.26 112.074C136.96 112.784 135.47 113.134 133.83 113.134C129.61 113.134 126.27 111.314 123.82 107.654C121.83 104.684 120.84 101.054 120.84 96.7341C120.84 93.2841 121.45 90.2041 122.69 87.4641C123.91 84.7441 125.6 82.6841 127.72 81.2841C129.86 79.8941 132.15 79.2041 134.6 79.2041C136.18 79.2041 137.58 79.4941 138.81 80.0941C140.03 80.6941 141.35 81.7341 142.73 83.2041V73.5541C142.73 71.1141 142.62 69.6441 142.42 69.1341C142.13 68.4841 141.71 67.9841 141.14 67.6641C140.57 67.3441 139.51 67.1841 137.95 67.1841V65.7441H152.63H152.64ZM142.74 87.4541C140.99 84.2041 138.87 82.5941 136.34 82.5941C135.46 82.5941 134.75 82.8141 134.18 83.2741C133.31 83.9841 132.6 85.2241 132.04 87.0141C131.48 88.7941 131.21 91.5141 131.21 95.1941C131.21 99.2441 131.51 102.224 132.13 104.164C132.74 106.104 133.58 107.514 134.64 108.384C135.18 108.814 135.92 109.024 136.87 109.024C138.94 109.024 140.9 107.454 142.74 104.304V87.4641V87.4541Z" fill="white"/>
<path d="M220.84 65.7441V78.3141H219.57C218.81 75.4041 217.98 73.3241 217.06 72.0641C216.15 70.7941 214.88 69.7841 213.27 69.0341C212.38 68.6141 210.81 68.4141 208.57 68.4141H205V104.224C205 106.604 205.13 108.084 205.4 108.674C205.68 109.274 206.21 109.784 206.99 110.234C207.79 110.694 208.86 110.914 210.23 110.914H211.82V112.174H186.71V110.914H188.3C189.69 110.914 190.81 110.664 191.66 110.184C192.27 109.874 192.76 109.324 193.11 108.534C193.37 107.994 193.51 106.554 193.51 104.224V68.4141H190.03C186.81 68.4141 184.45 69.0641 182.99 70.4041C180.94 72.2541 179.64 74.8941 179.1 78.3141H177.76V65.7441H220.84Z" fill="white"/>
<path d="M232.44 80.1641V87.4241C234.64 84.1141 236.56 81.9241 238.2 80.8341C239.86 79.7441 241.45 79.2141 242.98 79.2141C244.3 79.2141 245.36 79.6041 246.14 80.3941C246.94 81.1741 247.32 82.2841 247.32 83.7241C247.32 85.2541 246.94 86.4441 246.18 87.2841C245.42 88.1241 244.49 88.5641 243.4 88.5641C242.15 88.5641 241.07 88.1641 240.15 87.3941C239.22 86.6141 238.68 86.1741 238.52 86.0941C238.28 85.9541 238.01 85.8841 237.7 85.8841C237.02 85.8841 236.37 86.1341 235.76 86.6341C234.79 87.4141 234.07 88.5241 233.57 89.9641C232.81 92.1741 232.44 94.6141 232.44 97.2941V104.644L232.48 106.574C232.48 107.874 232.57 108.704 232.72 109.064C233.01 109.684 233.42 110.144 233.97 110.424C234.52 110.714 235.47 110.894 236.78 110.964V112.194H218.93V110.964C220.37 110.844 221.33 110.464 221.84 109.804C222.35 109.164 222.6 107.444 222.6 104.654V86.9641C222.6 85.1441 222.52 83.9741 222.32 83.4741C222.08 82.8341 221.74 82.3641 221.29 82.0741C220.85 81.7741 220.05 81.5741 218.92 81.4541V80.1941H232.43L232.44 80.1641Z" fill="white"/>
<path d="M280.99 80.1641V105.224C280.99 107.664 281.22 109.204 281.69 109.794C282.16 110.404 283.11 110.784 284.56 110.954V112.184H271.07V107.904C269.49 109.724 267.92 111.064 266.34 111.894C264.76 112.724 262.98 113.144 261.02 113.144C259.17 113.144 257.51 112.594 256.06 111.484C254.61 110.374 253.63 109.074 253.14 107.594C252.65 106.114 252.39 103.524 252.39 99.8241V87.1241C252.39 84.7041 252.16 83.2141 251.7 82.6141C251.24 82.0141 250.29 81.6341 248.83 81.4441V80.1841H262.3V102.064C262.3 104.344 262.41 105.814 262.64 106.484C262.86 107.134 263.21 107.644 263.7 107.984C264.18 108.324 264.74 108.504 265.38 108.504C266.23 108.504 266.98 108.284 267.67 107.854C268.61 107.254 269.75 106.064 271.06 104.254V87.1341C271.06 84.7141 270.83 83.2241 270.37 82.6241C269.91 82.0241 268.96 81.6441 267.49 81.4541V80.1941H280.98L280.99 80.1641Z" fill="white"/>
<path d="M308.43 79.2741L308.96 90.1941H307.75C306.31 86.9541 304.82 84.7341 303.27 83.5541C301.73 82.3641 300.19 81.7641 298.66 81.7641C297.7 81.7641 296.87 82.0741 296.19 82.7141C295.5 83.3441 295.16 84.0641 295.16 84.8841C295.16 85.5041 295.4 86.1041 295.87 86.6641C296.62 87.6041 298.73 89.2141 302.2 91.4741C305.66 93.7441 307.94 95.6741 309.05 97.2641C310.15 98.8541 310.69 100.634 310.69 102.594C310.69 104.374 310.23 106.114 309.31 107.834C308.4 109.534 307.09 110.854 305.42 111.774C303.74 112.684 301.9 113.144 299.87 113.144C298.29 113.144 296.18 112.664 293.53 111.704C292.83 111.444 292.35 111.334 292.08 111.334C291.3 111.334 290.65 111.904 290.13 113.044H288.96L288.4 101.544H289.61C290.67 104.554 292.13 106.814 293.98 108.324C295.83 109.834 297.58 110.584 299.23 110.584C300.36 110.584 301.28 110.244 302.01 109.574C302.72 108.894 303.08 108.084 303.08 107.124C303.08 106.034 302.73 105.094 302.02 104.284C301.32 103.494 299.74 102.274 297.28 100.664C293.67 98.2441 291.34 96.3841 290.28 95.1141C288.72 93.2441 287.94 91.1741 287.94 88.9141C287.94 86.4541 288.82 84.2141 290.58 82.2141C292.33 80.2141 294.88 79.2241 298.2 79.2241C299.99 79.2241 301.73 79.6441 303.41 80.4841C304.04 80.8241 304.56 80.9941 304.95 80.9941C305.38 80.9941 305.72 80.9141 305.98 80.7341C306.25 80.5641 306.66 80.0741 307.22 79.2841H308.43V79.2741Z" fill="white"/>
<path d="M327.03 68.4541V80.1641H334.88V83.5541H327.03V103.304C327.03 105.154 327.11 106.344 327.29 106.884C327.47 107.424 327.79 107.854 328.23 108.194C328.68 108.514 329.09 108.684 329.46 108.684C330.99 108.684 332.44 107.554 333.82 105.294L334.87 106.054C332.96 110.434 329.86 112.624 325.58 112.624C323.48 112.624 321.7 112.064 320.25 110.934C318.8 109.804 317.87 108.534 317.47 107.144C317.24 106.374 317.12 104.264 317.12 100.844V83.5541H312.8V82.3541C315.77 80.3241 318.3 78.1941 320.39 75.9541C322.48 73.7241 324.29 71.2241 325.85 68.4641H327.02L327.03 68.4541Z" fill="white"/>
<path d="M18.6396 130.484C18.6396 127.624 19.3597 125.384 20.7896 123.764C22.2297 122.144 24.0796 121.334 26.3396 121.334C27.8296 121.334 29.1596 121.714 30.3596 122.474C31.5596 123.234 32.4596 124.294 33.0896 125.654C33.7096 127.024 34.0296 128.564 34.0296 130.284C34.0296 132.004 33.6996 133.594 33.0396 134.974C32.3796 136.354 31.4496 137.404 30.2396 138.104C29.0396 138.814 27.7296 139.174 26.3296 139.174C24.8196 139.174 23.4596 138.774 22.2696 137.994C21.0796 137.214 20.1696 136.144 19.5596 134.784C18.9496 133.434 18.6396 131.994 18.6396 130.484ZM20.8396 130.524C20.8396 132.604 21.3596 134.234 22.3996 135.434C23.4396 136.624 24.7496 137.234 26.3196 137.234C27.8896 137.234 29.2396 136.624 30.2796 135.424C31.3096 134.214 31.8296 132.504 31.8296 130.284C31.8296 128.884 31.6096 127.664 31.1696 126.614C30.7296 125.564 30.0796 124.764 29.2296 124.184C28.3796 123.604 27.4196 123.324 26.3596 123.324C24.8496 123.324 23.5496 123.874 22.4696 124.984C21.3796 126.094 20.8396 127.944 20.8396 130.544V130.524Z" fill="white"/>
<path d="M40.79 138.874V121.634H51.65V123.674H42.92V129.014H50.47V131.044H42.92V138.874H40.79Z" fill="white"/>
<path d="M73.9102 138.874V121.634H76.1002L84.5502 135.174V121.634H86.6002V138.874H84.4102L75.9602 125.324V138.874H73.9102Z" fill="white"/>
<path d="M93.4297 130.484C93.4297 127.624 94.1497 125.384 95.5797 123.764C97.0197 122.144 98.8697 121.334 101.14 121.334C102.63 121.334 103.96 121.714 105.16 122.474C106.36 123.234 107.26 124.294 107.89 125.654C108.51 127.024 108.83 128.564 108.83 130.284C108.83 132.004 108.5 133.594 107.84 134.974C107.18 136.354 106.25 137.404 105.04 138.104C103.84 138.814 102.53 139.174 101.13 139.174C99.6197 139.174 98.2597 138.774 97.0697 137.994C95.8697 137.214 94.9697 136.144 94.3597 134.784C93.7497 133.434 93.4397 131.994 93.4397 130.484H93.4297ZM95.6297 130.524C95.6297 132.604 96.1497 134.234 97.1997 135.434C98.2397 136.624 99.5497 137.234 101.12 137.234C102.69 137.234 104.04 136.624 105.08 135.424C106.11 134.214 106.63 132.504 106.63 130.284C106.63 128.884 106.41 127.664 105.97 126.614C105.53 125.564 104.88 124.764 104.03 124.184C103.18 123.604 102.22 123.324 101.16 123.324C99.6497 123.324 98.3497 123.874 97.2697 124.984C96.1797 126.094 95.6397 127.944 95.6397 130.544L95.6297 130.524Z" fill="white"/>
<path d="M115.5 138.874V121.634H122.64C124.07 121.634 125.16 121.794 125.91 122.104C126.66 122.414 127.25 122.954 127.7 123.744C128.15 124.524 128.37 125.394 128.37 126.344C128.37 127.564 128 128.594 127.27 129.434C126.53 130.274 125.39 130.804 123.84 131.034C124.41 131.324 124.83 131.614 125.12 131.894C125.74 132.504 126.33 133.264 126.89 134.184L129.69 138.874H127.01L124.88 135.284C124.26 134.254 123.75 133.454 123.34 132.914C122.94 132.364 122.58 131.984 122.26 131.764C121.94 131.544 121.62 131.394 121.29 131.314C121.05 131.254 120.65 131.224 120.1 131.224H117.63V138.874H115.5ZM117.63 129.244H122.21C123.18 129.244 123.95 129.134 124.5 128.924C125.05 128.704 125.46 128.364 125.75 127.884C126.04 127.404 126.18 126.894 126.18 126.344C126.18 125.524 125.9 124.854 125.36 124.334C124.81 123.804 123.93 123.554 122.74 123.554H117.65V129.254L117.63 129.244Z" fill="white"/>
<path d="M139.71 138.874V123.674H134.4V121.634H147.16V123.674H141.83V138.874H139.71Z" fill="white"/>
<path d="M153.31 138.874V121.634H155.44V128.714H163.81V121.634H165.94V138.874H163.81V130.744H155.44V138.874H153.31Z" fill="white"/>
<path d="M187.23 138.874L193.41 121.634H195.7L202.29 138.874H199.86L197.98 133.654H191.25L189.49 138.874H187.23ZM191.87 131.794H197.33L195.65 127.014C195.13 125.564 194.75 124.374 194.51 123.434C194.3 124.544 194.01 125.634 193.64 126.724L191.87 131.784V131.794Z" fill="white"/>
<path d="M207.82 138.874V121.634H209.94V136.844H217.87V138.874H207.82Z" fill="white"/>
<path d="M222.55 138.874L228.73 121.634H231.02L237.61 138.874H235.18L233.3 133.654H226.57L224.8 138.874H222.54H222.55ZM227.19 131.794H232.65L230.97 127.014C230.45 125.564 230.07 124.374 229.83 123.434C229.62 124.544 229.33 125.634 228.96 126.724L227.19 131.784V131.794Z" fill="white"/>
<path d="M243.13 138.874V121.634H249.17C250.4 121.634 251.39 121.804 252.13 122.154C252.87 122.504 253.46 123.044 253.88 123.764C254.3 124.494 254.51 125.244 254.51 126.044C254.51 126.784 254.32 127.474 253.95 128.124C253.58 128.774 253.01 129.294 252.26 129.704C253.23 130.004 253.98 130.534 254.51 131.264C255.03 131.994 255.29 132.864 255.29 133.874C255.29 134.684 255.13 135.434 254.81 136.124C254.49 136.814 254.1 137.354 253.63 137.724C253.16 138.104 252.58 138.384 251.87 138.574C251.16 138.764 250.3 138.864 249.27 138.864H243.13V138.874ZM245.26 128.884H248.74C249.69 128.884 250.36 128.814 250.77 128.684C251.31 128.514 251.72 128.234 251.99 127.824C252.27 127.424 252.4 126.914 252.4 126.314C252.4 125.714 252.27 125.234 252.01 124.804C251.75 124.364 251.39 124.074 250.92 123.914C250.44 123.754 249.63 123.674 248.47 123.674H245.25V128.884H245.26ZM245.26 136.844H249.27C249.96 136.844 250.44 136.814 250.72 136.764C251.21 136.664 251.62 136.514 251.95 136.294C252.28 136.084 252.55 135.754 252.76 135.334C252.97 134.914 253.08 134.434 253.08 133.884C253.08 133.244 252.92 132.674 252.62 132.204C252.31 131.724 251.88 131.394 251.34 131.204C250.79 131.014 250.01 130.914 248.98 130.914H245.26V136.844Z" fill="white"/>
<path d="M260.35 138.874L266.53 121.634H268.82L275.41 138.874H272.98L271.1 133.654H264.37L262.6 138.874H260.34H260.35ZM264.99 131.794H270.45L268.77 127.014C268.26 125.564 267.88 124.374 267.63 123.434C267.42 124.544 267.13 125.634 266.76 126.724L264.99 131.784V131.794Z" fill="white"/>
<path d="M280.95 138.874V121.634H284.16L287.97 133.844C288.32 134.974 288.58 135.834 288.74 136.394C288.92 135.764 289.21 134.844 289.6 133.634L293.45 121.634H296.32V138.874H294.27V124.444L289.59 138.874H287.67L283.02 124.204V138.874H280.96H280.95Z" fill="white"/>
<path d="M301.88 138.874L308.07 121.634H310.36L316.95 138.874H314.52L312.64 133.654H305.91L304.14 138.874H301.88ZM306.52 131.794H311.98L310.3 127.014C309.79 125.564 309.41 124.374 309.16 123.434C308.96 124.544 308.66 125.634 308.29 126.724L306.52 131.784V131.794Z" fill="white"/>
<path d="M321.96 61.6641L317.74 56.1041C313.03 51.0941 312.03 50.4741 306.83 46.4541C303.32 43.1941 293.67 36.2441 282.91 33.0341C274.42 27.9141 273.37 24.8741 268.4 21.3041C258.54 14.9141 255.73 23.8741 250.17 21.6741C230.99 15.6741 230.99 7.12413 218.2 3.03413C215.6 2.04413 211.03 -0.355868 208.45 0.984132C183.48 19.3241 181.63 9.91413 156.73 34.4541C152.47 36.6641 146.19 37.7541 141.64 34.3941C130.44 22.1141 122.62 23.9541 107.73 17.5441C100.27 14.7641 89.3805 15.9841 84.1305 21.8241C57.8405 40.6241 52.5305 43.2141 30.3305 57.3441L26.4805 61.4341C45.1805 50.3041 59.3605 47.9141 77.9105 34.0141C83.3405 29.8241 92.4705 18.8141 101.01 22.0141C105.65 24.1441 110.54 26.3141 114.51 28.0241C118.53 29.0741 120.71 28.5141 127.65 32.1441C130.48 34.7641 133.3 37.3841 136.13 40.0041C144.42 45.1541 155.34 45.4041 162.04 37.7841C176.2 25.1041 192.48 22.3941 204.97 10.4541C209.37 7.69413 212.35 8.16413 217.8 10.2141C228.12 17.4441 242.48 27.6841 248.9 28.7141C253.53 30.6941 260.11 19.9441 267.98 30.2841C270.22 32.9341 276.69 37.2841 277.37 37.8541C280.85 40.3841 296.71 44.0741 301.06 46.6241C308.38 50.9941 315.15 56.3041 321.95 61.6741L321.96 61.6641Z" fill="#9FC131"/>
<path d="M339.76 105.844C340.33 105.844 340.88 105.994 341.42 106.284C341.96 106.574 342.38 106.994 342.69 107.534C342.99 108.074 343.14 108.644 343.14 109.234C343.14 109.824 342.99 110.384 342.69 110.914C342.39 111.454 341.98 111.874 341.44 112.164C340.9 112.464 340.34 112.614 339.76 112.614C339.18 112.614 338.61 112.464 338.08 112.164C337.54 111.864 337.12 111.454 336.82 110.914C336.52 110.374 336.37 109.814 336.37 109.234C336.37 108.654 336.52 108.084 336.83 107.534C337.13 106.994 337.56 106.574 338.1 106.284C338.64 105.994 339.2 105.844 339.77 105.844H339.76ZM339.76 106.404C339.28 106.404 338.82 106.524 338.37 106.764C337.92 107.014 337.57 107.354 337.31 107.814C337.06 108.264 336.93 108.734 336.93 109.234C336.93 109.734 337.05 110.194 337.3 110.634C337.55 111.084 337.9 111.424 338.35 111.684C338.8 111.934 339.27 112.054 339.76 112.054C340.25 112.054 340.72 111.934 341.16 111.684C341.61 111.434 341.96 111.084 342.2 110.634C342.45 110.184 342.57 109.724 342.57 109.234C342.57 108.744 342.44 108.274 342.19 107.814C341.94 107.364 341.58 107.014 341.13 106.764C340.68 106.524 340.22 106.404 339.75 106.404H339.76ZM338.27 111.104V107.464H339.52C339.95 107.464 340.26 107.494 340.45 107.564C340.64 107.634 340.79 107.744 340.91 107.914C341.02 108.084 341.08 108.264 341.08 108.444C341.08 108.714 340.99 108.944 340.79 109.144C340.6 109.344 340.35 109.454 340.03 109.474C340.16 109.524 340.26 109.594 340.34 109.664C340.49 109.804 340.67 110.054 340.88 110.384L341.32 111.094H340.6L340.28 110.524C340.03 110.074 339.82 109.794 339.67 109.674C339.56 109.594 339.4 109.554 339.2 109.554H338.86V111.104H338.27ZM338.86 109.054H339.57C339.91 109.054 340.14 109.004 340.27 108.904C340.39 108.804 340.45 108.674 340.45 108.504C340.45 108.394 340.42 108.294 340.36 108.214C340.3 108.124 340.22 108.064 340.11 108.024C340 107.984 339.81 107.964 339.52 107.964H338.85V109.064L338.86 109.054Z" fill="white"/>
</svg>
