<svg class="header-tabbed__logo--svg" xmlns="http://www.w3.org/2000/svg" width="197.74" height="161.94" xmlns:xlink="http://www.w3.org/1999/xlink" viewBox="0 0 197.74 161.94">
<style>
  
  @-webkit-keyframes textFades {
    0% {
      opacity: 0%;
    }
    100% {
      opacity: 100%;
    }
  }

  @keyframes textFades {
    0% {
      opacity: 0%;
    }
    100% {
      opacity: 100%;
    }
  }

  @-webkit-keyframes logoSegmentFades {
    0% {
      opacity: 0%;
    }
    15% {
      opacity: 100%;
    }
    100% {
      opacity: 100%;
    }
  }

  @keyframes logoSegmentFades {
    0% {
      opacity: 0%;
    }
    15% {
      opacity: 100%;
    }
    100% {
      opacity: 100%;
    }
  }
  
    .animated #blue-1,
    .animated #blue-2,
    .animated #blue-3,
    .animated #blue-4,
    .animated #blue-5,
    .animated #blue-6,
    .animated #green-1,
    .animated #green-2,
    .animated #green-3,
    .animated #green-4,
    .animated #green-5,
    .animated #green-6{
      opacity:0%;
        -webkit-animation-name: logoSegmentFades;
                animation-name: logoSegmentFades;
    -webkit-animation-iteration-count: 1;
            animation-iteration-count: 1;
    -webkit-animation-timing-function: ease-in;
            animation-timing-function: ease-in;
    -webkit-animation-duration: 1.5s;
            animation-duration: 1.5s;
    -webkit-animation-fill-mode: forwards;
            animation-fill-mode: forwards;
    }

    .animated #blue-1{-webkit-animation-delay:0.1s;animation-delay:0.1s;}
    .animated #blue-2{-webkit-animation-delay:0.2s;animation-delay:0.2s;}
    .animated #blue-3{-webkit-animation-delay:0.3s;animation-delay:0.3s;}
    .animated #blue-4{-webkit-animation-delay:0.4s;animation-delay:0.4s;}
    .animated #blue-5{-webkit-animation-delay:0.5s;animation-delay:0.5s;}
    .animated #blue-6{-webkit-animation-delay:0.6s;animation-delay:0.6s;;}
    .animated #green-1{-webkit-animation-delay:0.7s;animation-delay:0.7s;}
    .animated #green-2{-webkit-animation-delay:0.8s;animation-delay:0.8s;}
    .animated #green-3{-webkit-animation-delay:0.9s;animation-delay:0.9s;}
    .animated #green-4{-webkit-animation-delay:1.0s;animation-delay:1.0s;}
    .animated #green-5{-webkit-animation-delay:1.1s;animation-delay:1.1s;}
    .animated #green-6{-webkit-animation-delay:1.2s;animation-delay:1.2s;}

    .animated #openspace, .animated #institute {
      -webkit-animation-delay:1.5s;
        animation-delay:1.5s;
        opacity:0%;
          -webkit-animation-name: textFades;
                  animation-name: textFades;
      -webkit-animation-iteration-count: 1;
              animation-iteration-count: 1;
      -webkit-animation-timing-function: ease-in;
              animation-timing-function: ease-in;
      -webkit-animation-duration: 1.5s;
              animation-duration: 1.5s;
      -webkit-animation-fill-mode: forwards;
            animation-fill-mode: forwards;
    }
  </style>
<defs>


  <linearGradient id="linear-gradient" x1="98.93" y1="163.32" x2="98.93" y2="116.06" gradientTransform="translate(0 163.43) scale(1 -1)" gradientUnits="userSpaceOnUse"><stop offset="0" stop-color="#d9a63b"></stop><stop offset=".1" stop-color="#e3bd52"></stop><stop offset=".22" stop-color="#ebce64"></stop><stop offset=".34" stop-color="#f0d96f"></stop><stop offset=".48" stop-color="#f2dd73"></stop><stop offset=".66" stop-color="#f0da70"></stop><stop offset=".78" stop-color="#ecd167"></stop><stop offset=".88" stop-color="#e6c358"></stop><stop offset=".97" stop-color="#ddaf44"></stop><stop offset="1" stop-color="#d9a63b"></stop></linearGradient><linearGradient id="linear-gradient-2" y1="113.81" y2="66.43" xlink:href="#linear-gradient"></linearGradient></defs>

<g id="green-1"><path d="M135.23,49.61c-.2,6.2-1.94,12-4.86,17.04l10.5,6.08c3.95-6.82,6.3-14.69,6.49-23.1h-12.13Z" style="fill:#bad875; fill-rule:evenodd; stroke-width:0px;"></path></g><g id="green-2"><path d="M130.37,66.65c-3.19,5.51-7.79,10.1-13.31,13.28l6.05,10.51c7.36-4.25,13.49-10.37,17.76-17.71l-10.5-6.08Z" style="fill:#8ac650; fill-rule:evenodd; stroke-width:0px;"></path></g><g id="green-3"><path d="M117.06,79.93c-5.35,3.09-11.55,4.86-18.17,4.86h0v12.11c8.81.01,17.09-2.34,24.22-6.45l-6.05-10.51Z" style="fill:#50b748; fill-rule:evenodd; stroke-width:0px;"></path></g><g id="green-4"><path d="M80.73,79.89l-6.08,10.49c7.12,4.13,15.39,6.51,24.22,6.52v-12.11c-6.6-.02-12.8-1.8-18.14-4.9Z" style="fill:#3a9848; fill-rule:evenodd; stroke-width:0px;"></path></g><g id="green-5"><path d="M67.45,66.58l-10.5,6.05c4.24,7.35,10.36,13.49,17.71,17.76l6.08-10.49c-5.51-3.2-10.1-7.8-13.28-13.31Z" style="fill:#217d46; fill-rule:evenodd; stroke-width:0px;"></path></g><g id="green-6"><path d="M62.62,49.52h-12.12c.18,8.4,2.49,16.27,6.44,23.1l10.51-6.05c-2.91-5.05-4.65-10.86-4.83-17.06Z" style="fill:#006543; fill-rule:evenodd; stroke-width:0px;"></path></g><g id="blue-1"><path d="M57,24.17c-3.96,6.82-6.3,14.69-6.5,23.1h12.12c.2-6.18,1.94-11.98,4.87-17.02l-10.49-6.07Z" style="fill:#abe0f9; fill-rule:evenodd; stroke-width:0px;"></path></g><g id="blue-2"><path d="M74.76,6.46c-7.36,4.25-13.5,10.37-17.76,17.71l10.49,6.07c3.2-5.51,7.8-10.09,13.32-13.28l-6.05-10.51Z" style="fill:#6dcef5; fill-rule:evenodd; stroke-width:0px;"></path></g><g id="blue-3"><path d="M74.76,6.46l6.05,10.5c5.35-3.08,11.55-4.85,18.17-4.84V0c-8.82-.01-17.09,2.34-24.22,6.46Z" style="fill:#10b0e6; fill-rule:evenodd; stroke-width:0px;"></path></g><g id="blue-4"><path d="M99,0v12.11s-.01,0-.01,0c6.62,0,12.81,1.79,18.15,4.89l6.08-10.49C116.09,2.38,107.82.01,99,0Z" style="fill:#0096d5; fill-rule:evenodd; stroke-width:0px;"></path></g><g id="blue-5"><path d="M123.21,6.51l-6.08,10.49c5.51,3.2,10.1,7.8,13.28,13.31l10.51-6.05c-4.25-7.36-10.36-13.49-17.71-17.76Z" style="fill:#0074bb; fill-rule:evenodd; stroke-width:0px;"></path></g><g id="blue-6"><path d="M140.92,24.27l-10.51,6.05c2.91,5.05,4.64,10.85,4.82,17.05h12.13c-.18-8.39-2.5-16.27-6.44-23.1Z" style="fill:#034ea1; fill-rule:evenodd; stroke-width:0px;"></path></g><g id="institute"><g id="_Path_"><path d="M36.14,147.1h1.93c.22,0,.39.18.39.39v13.73c0,.22-.18.39-.39.39h-1.93c-.22,0-.4-.18-.4-.4v-13.73c0-.22.18-.4.4-.4Z" style="fill:#231f20; stroke-width:0px;"></path></g><g id="_Path_-2"><path d="M168.47,149.76c.23,0,.4-.19.4-.39v-1.7c0-.21-.16-.4-.39-.4h-8.44c-.23-.01-.4.18-.4.38l-.02,13.73c0,.21.17.4.4.4h8.44c.23.01.4-.18.4-.38v-1.7c0-.21-.16-.39-.39-.39h-6.14s0-3.64,0-3.64h5.12c.21,0,.4-.16.4-.39v-1.72c0-.21-.19-.39-.39-.39h-5.12s0-3.41,0-3.41h6.14Z" style="fill:#231f20; fill-rule:evenodd; stroke-width:0px;"></path></g><g id="_Path_-3"><path d="M58.76,147.13h-1.91c-.23,0-.39.19-.39.39v8.56h-.03l-8.61-9.18h-.52c-.21,0-.39.16-.39.37l-.02,13.95c0,.21.19.4.39.4h1.89c.23,0,.4-.18.4-.39v-8.91h.03l8.66,9.53h.5c.21,0,.39-.16.39-.37l.02-13.95c0-.21-.18-.4-.39-.4Z" style="fill:#231f20; fill-rule:evenodd; stroke-width:0px;"></path></g><g id="_Path_-4"><path d="M71.93,153.08c-1.68-.69-2.44-1.35-2.44-2.32,0-.67.65-1.45,1.83-1.45,1.14,0,2.72,1.04,2.88,1.15.25.17.56,0,.73-.25l.79-1.18c.15-.21.08-.56-.12-.69-.41-.31-2.03-1.39-4.15-1.39-3.3,0-4.67,2.13-4.67,3.98,0,2.45,1.94,3.69,3.89,4.48,1.74.71,2.63,1.43,2.63,2.49,0,.89-.81,1.59-1.89,1.59-1.35,0-3.03-1.23-3.13-1.29-.19-.15-.54-.15-.71.14l-.75,1.29c-.19.33-.08.43.1.62.42.39,1.95,1.62,4.56,1.62,2.92,0,4.77-1.96,4.77-4.1,0-2.67-2.32-3.88-4.33-4.69Z" style="fill:#231f20; fill-rule:evenodd; stroke-width:0px;"></path></g><g id="_Path_-5"><path d="M91.68,147.17h-9.06c-.23-.01-.39.18-.39.38v1.7c0,.21.16.4.39.4h3.17s-.01,11.64-.01,11.64c0,.21.19.4.39.4h1.93c.21,0,.4-.19.4-.39v-11.63s3.19,0,3.19,0c.23,0,.4-.19.4-.4v-1.7c0-.21-.16-.4-.39-.4Z" style="fill:#231f20; fill-rule:evenodd; stroke-width:0px;"></path></g><g id="_Path_-6"><path d="M101.17,147.18h-1.93c-.21,0-.4.19-.4.39l-.02,13.73c0,.21.19.4.4.4h1.93c.21,0,.39-.19.39-.39l.02-13.73c0-.21-.18-.4-.39-.4Z" style="fill:#231f20; fill-rule:evenodd; stroke-width:0px;"></path></g><g id="_Path_-7"><path d="M117.77,147.2h-9.06c-.23-.01-.4.18-.4.38v1.7c0,.21.16.4.39.4h3.17s-.02,11.64-.02,11.64c0,.21.19.4.4.4h1.93c.21,0,.4-.19.4-.39l.02-11.63h3.17c.23,0,.39-.18.39-.39v-1.7c0-.21-.16-.4-.39-.4Z" style="fill:#231f20; fill-rule:evenodd; stroke-width:0px;"></path></g><g id="_Path_-8"><path d="M135.97,147.23h-1.97c-.23,0-.39.19-.39.39v8.5c-.01,1.74-1.24,3.13-3.05,3.13-1.8,0-3-1.39-3-3.16v-8.48c0-.21-.15-.39-.38-.39h-1.97c-.21,0-.4.18-.4.39v8.63c-.01,3.15,2.49,5.71,5.75,5.71,3.28,0,5.79-2.54,5.79-5.69v-8.63c.01-.21-.17-.4-.38-.4Z" style="fill:#231f20; fill-rule:evenodd; stroke-width:0px;"></path></g><g id="_Path_-9"><path d="M152.47,147.25h-9.06c-.23-.01-.4.18-.4.38v1.7c0,.21.16.4.39.4h3.17s-.02,11.63-.02,11.63c0,.21.19.39.4.4h1.93c.21,0,.39-.19.39-.39v-11.63s3.19,0,3.19,0c.23,0,.39-.19.39-.39v-1.7c0-.21-.16-.39-.39-.4Z" style="fill:#231f20; fill-rule:evenodd; stroke-width:0px;"></path></g></g><g id="openspace"><g id="_Path_-10"><path d="M197.18,120.22c.33,0,.56-.26.56-.56v-2.41c0-.29-.23-.56-.56-.56l-11.98-.02c-.32,0-.56.26-.56.56l-.02,19.49c0,.29.23.56.56.56h11.98c.33.02.56-.25.56-.54v-2.41c0-.29-.23-.56-.56-.56h-8.71s0-5.16,0-5.16h7.27c.29.01.56-.22.56-.55v-2.44c0-.29-.26-.56-.56-.56h-7.27s0-4.84,0-4.84h8.71Z" style="fill:#231f20; fill-rule:evenodd; stroke-width:0px;"></path></g><g id="_Compound_Path_"><path d="M10.58,116.17C4.69,116.16,0,120.89,0,126.78c0,5.89,4.67,10.58,10.55,10.58,5.89,0,10.6-4.67,10.61-10.56,0-5.88-4.7-10.63-10.58-10.64ZM10.56,133.53c-3.71,0-6.74-3.04-6.73-6.75,0-3.71,3.04-6.79,6.75-6.79,3.71,0,6.76,3.1,6.76,6.81,0,3.71-3.07,6.74-6.78,6.73Z" style="fill:#231f20; fill-rule:evenodd; stroke-width:0px;"></path></g><g id="_Compound_Path_-2"><path d="M35.3,116.49h-6.92c-.32,0-.56.26-.56.55l-.02,19.49c0,.29.23.56.56.56h2.71c.29,0,.56-.26.56-.55v-6.92s3.69,0,3.69,0c3.59,0,6.57-2.96,6.57-6.61,0-3.56-2.97-6.51-6.59-6.51ZM35.05,126.03h-3.42s0-5.92,0-5.92h3.42c1.65,0,3.03,1.24,3.03,2.86,0,1.74-1.39,3.06-3.04,3.06Z" style="fill:#231f20; fill-rule:evenodd; stroke-width:0px;"></path></g><g id="_Path_-11"><path d="M60.28,120.05c.32,0,.56-.26.56-.56v-2.41c0-.29-.23-.56-.56-.56h-11.98c-.32-.01-.56.25-.56.54l-.02,19.49c0,.29.23.56.56.56h11.98c.32.01.56-.25.56-.54v-2.41c0-.29-.23-.56-.55-.56h-8.71s0-5.16,0-5.16h7.27c.3,0,.56-.23.56-.55v-2.44c0-.29-.26-.56-.56-.56h-7.27s0-4.84,0-4.84h8.71Z" style="fill:#231f20; fill-rule:evenodd; stroke-width:0px;"></path></g><g id="_Path_-12"><path d="M84.71,116.55h-2.71c-.32,0-.56.26-.56.55l-.02,12.16h-.03l-12.23-13.03h-.74c-.3,0-.56.23-.56.53l-.02,19.81c0,.29.26.56.56.56h2.68c.32,0,.56-.26.56-.55l.02-12.66h.03l12.29,13.53h.71c.29,0,.56-.24.56-.53l.02-19.81c0-.29-.26-.56-.56-.56Z" style="fill:#231f20; fill-rule:evenodd; stroke-width:0px;"></path></g><g id="_Path_-13"><path d="M109,125c-2.38-.98-3.47-1.92-3.47-3.3,0-.94.91-2.06,2.59-2.06,1.62,0,3.86,1.48,4.09,1.62.35.24.79,0,1.03-.35l1.12-1.68c.2-.29.12-.8-.18-.97-.59-.44-2.88-1.98-5.88-1.98-4.68,0-6.63,3.02-6.63,5.64,0,3.47,2.76,5.24,5.53,6.37,2.47,1,3.74,2.03,3.73,3.54,0,1.26-1.15,2.26-2.68,2.26-1.91,0-4.3-1.74-4.44-1.83-.27-.21-.76-.21-1,.2l-1.06,1.82c-.27.47-.12.62.14.88.59.56,2.77,2.3,6.47,2.31,4.15,0,6.78-2.79,6.78-5.82,0-3.8-3.29-5.51-6.14-6.66Z" style="fill:#231f20; fill-rule:evenodd; stroke-width:0px;"></path></g><g id="_Compound_Path_-3"><path d="M129.23,116.61h-6.92c-.32,0-.56.25-.56.55l-.03,19.49c0,.29.24.56.56.56h2.71c.29,0,.56-.26.56-.55v-6.92s3.69,0,3.69,0c3.59,0,6.57-2.96,6.57-6.61,0-3.56-2.97-6.51-6.59-6.51ZM128.98,126.14h-3.42s0-5.92,0-5.92h3.41c1.65,0,3.03,1.25,3.03,2.86,0,1.74-1.39,3.06-3.04,3.06Z" style="fill:#231f20; fill-rule:evenodd; stroke-width:0px;"></path></g><g id="_Compound_Path_-4"><path d="M157.25,136.48l-9.04-19.82c-.09-.18-.2-.32-.5-.32h-.3c-.26,0-.41.15-.5.32l-9.18,19.8c-.18.38.06.76.5.77h2.56c.47,0,.74-.29.85-.59l1.45-3.18h8.8s1.44,3.19,1.44,3.19c.2.41.41.59.85.59h2.56c.44,0,.68-.38.5-.76ZM144.54,130.2l2.89-6.48h.09l2.94,6.48h-5.92Z" style="fill:#231f20; fill-rule:evenodd; stroke-width:0px;"></path></g><g id="_Path_-14"><path d="M176.42,132.03c-.18-.17-.5-.21-.74,0-1.24,1-2.74,1.68-4.51,1.67-3.77,0-6.59-3.13-6.59-6.81,0-3.71,2.81-6.85,6.57-6.85,1.65,0,3.3.65,4.53,1.74.24.24.53.24.74,0l1.79-1.85c.24-.23.24-.59-.03-.82-2-1.8-4.15-2.74-7.12-2.75-5.88,0-10.63,4.73-10.64,10.61,0,5.89,4.73,10.58,10.61,10.58,2.62,0,5.15-.91,7.16-2.85.21-.2.27-.59.03-.8l-1.82-1.89Z" style="fill:#231f20; fill-rule:evenodd; stroke-width:0px;"></path></g></g></svg>