<svg viewBox="0 0 60 60" fill="none" xmlns="http://www.w3.org/2000/svg"><path fill-rule="evenodd" clip-rule="evenodd" d="M37.0966 4.44683C37.8641 4.92918 38.6326 5.5492 39.3299 5.8255C44.917 10.0992 50.8523 14.2352 56.4394 18.2336C57.9754 20.2323 59.0219 22.5082 59.3027 25.1279C59.093 25.4033 58.6727 25.1963 58.4631 25.1279C55.4603 22.5082 52.3883 19.5439 49.1066 16.8549L49.0374 16.9242C45.6153 14.0282 41.4247 10.3062 38.0036 7.54885C37.7247 7.61816 37.7247 7.47954 37.6554 7.34186C37.1668 6.7902 36.2579 6.03249 35.8395 5.7562C35.6299 5.8255 35.7703 6.03249 35.6982 6.17017C44.0091 14.5808 51.9709 22.0942 59.4422 29.5402C59.7211 31.0566 59.8605 32.9176 60 34.7777C59.9298 34.9847 59.7211 34.9172 59.5114 34.9172C50.5734 25.4033 42.6125 16.3726 33.3965 7.20418L33.1859 7.41117C42.1941 18.6476 50.2935 29.4709 58.742 39.811C58.8833 40.0863 58.8833 40.3626 59.0219 40.431C58.6727 41.465 58.6727 43.3953 57.4859 43.947C56.9271 43.947 56.2288 44.4284 55.8113 43.8093C52.32 38.0193 48.4786 32.8483 45.1969 27.3336L32.2078 7.41117C31.7894 7.75584 32.278 8.30749 32.3482 8.78984C37.5871 18.1643 42.4038 27.7466 47.36 37.2606C49.4567 41.1213 51.2707 44.8433 53.2962 48.7733C53.7165 48.91 53.7858 49.4626 53.5069 49.738C53.0173 50.4966 52.8086 51.0474 52.0401 51.4613L52.1786 51.599C51.69 52.0814 51.0629 52.7014 50.2935 52.2884L49.8049 52.0814C48.619 49.8757 47.7803 47.1867 46.8012 44.9819L37.5871 23.1283C35.4904 18.1643 33.3965 13.2705 31.3017 8.30749L31.0219 8.58285C34.0246 19.3369 38.0036 29.7463 41.5651 40.5003L45.7547 52.9093C46.1741 54.495 44.917 55.1825 44.0783 55.942C42.6125 56.4253 41.4247 56.8384 39.8897 55.942C38.9817 55.115 39.4011 53.5987 38.9115 52.5647C35.8395 38.0876 33.3254 22.7836 30.3928 8.44517C30.3226 8.23725 30.1139 8.23725 29.9735 8.23725L29.6936 8.44517L33.6043 47.67L34.5834 57.3891L34.3737 57.5258L34.4439 57.597C33.6043 58.631 31.7201 59.0441 30.464 58.8371C29.6936 58.8371 28.7174 58.3557 28.0884 57.597L28.1586 48.4277L28.8549 17.0619V8.9959L28.7174 9.20288C26.4119 24.8516 24.8769 40.7766 22.5705 56.3551C22.2925 56.8384 22.1531 57.183 21.6626 57.3891C19.7784 57.2514 17.824 57.0444 16.6362 55.5974C16.566 53.1847 17.5451 50.8404 18.0327 48.5654L25.3645 16.0963C26.0628 13.2705 26.9717 10.3062 27.1804 7.47954C26.4119 7.75583 26.7611 8.72054 26.4119 9.27126C21.6626 23.1283 17.7538 36.9853 13.2843 50.9097C12.8659 51.599 13.1448 52.84 12.1676 52.9777C10.7009 52.7014 9.23415 51.6674 8.88502 50.151C8.11654 46.842 10.7702 44.2233 11.5386 41.3264C15.0992 33.3999 18.731 25.8856 21.6626 17.7512L25.9243 7.96189C25.9243 7.82421 25.9936 7.54885 25.8541 7.41117C18.8714 19.8202 12.7957 32.779 6.30162 45.1187C5.95248 45.808 5.32347 45.8773 4.69541 45.808C3.50854 44.6363 2.94973 42.706 3.22866 40.9827C10.4912 30.1603 17.2652 18.9922 24.1777 7.89352L23.968 7.75584C16.2178 16.9926 8.88502 26.988 1.5532 36.3643C0.994393 36.4327 0.505794 35.9503 0.226866 35.6056C-0.0520618 34.5726 -0.122268 32.7097 0.296124 31.8143L2.52945 29.3323L2.46114 29.2639L6.23141 25.1963L22.9908 6.37716C23.1303 6.17017 23.0601 5.89388 22.8513 5.7562C15.7984 12.2365 8.60609 18.9239 1.48394 25.9549C0.994393 26.0926 0.645259 25.6786 0.43464 25.3349C0.366331 22.7836 0.994392 20.0262 3.1594 18.5783C9.44382 14.2352 15.5195 9.68617 21.7347 4.92918C21.3837 4.58451 20.896 4.7915 20.5469 4.92918C15.2396 7.13487 11.1202 10.7192 6.58054 14.7869C6.30162 14.7185 6.02269 14.9255 5.88322 14.5808C7.55869 11.8226 9.51308 8.65123 9.44382 4.99849C9.23415 4.30915 8.46663 3.61887 9.02448 2.86116C9.86316 1.75785 11.8176 1.82716 13.0746 2.10252C16.0783 2.79186 19.6389 1.96484 22.5705 1.75785C23.2697 1.48249 24.3171 1.41318 25.226 1.20713C26.6918 0.309865 28.4375 -0.240855 30.2524 0.103814C32.8368 0.448483 34.7219 3.27514 37.0966 4.44683ZM43.8703 2.2402C46.245 1.96484 49.1073 0.309866 51.4118 2.10252C53.1565 3.82586 53.9952 6.30785 53.5758 8.44517C53.8557 8.78984 53.8557 9.47918 53.5758 9.82385C53.0863 10.7192 51.9706 10.4439 51.1319 10.3755C50.1537 10.5816 49.3862 8.92752 48.6187 9.89222C48.5485 10.8579 50.0152 10.9262 49.9441 11.7532C48.5485 11.8226 47.3607 10.5132 46.3835 9.47918C43.5211 5.13523 38.5631 4.99849 35.14 1.5518L35.2112 1.2755C38.0033 2.10252 41.0782 1.68948 43.8703 2.2402Z" fill="currentColor"></path></svg>